<?xml version="1.0" standalone="no"?>
<!DOCTYPE svg PUBLIC "-//W3C//DTD SVG 20010904//EN"
 "http://www.w3.org/TR/2001/REC-SVG-20010904/DTD/svg10.dtd">
<svg version="1.0" xmlns="http://www.w3.org/2000/svg"
 width="300.000000pt" height="270.000000pt" viewBox="0 0 300.000000 270.000000"
 preserveAspectRatio="xMidYMid meet">
<metadata>
Created by potrace 1.10, written by Peter Selinger 2001-2011
</metadata>
<g transform="translate(0.000000,270.000000) scale(0.100000,-0.100000)"
fill="#000000" stroke="none">
<path d="M1934 2472 c-16 -10 -401 -752 -416 -801 -7 -23 -15 -41 -18 -41 -3
1 -31 49 -63 108 -32 59 -111 199 -175 312 -100 175 -121 205 -140 205 -21 0
-60 -64 -307 -500 -163 -286 -293 -527 -305 -563 -106 -325 33 -662 333 -806
109 -52 168 -66 285 -66 195 0 358 77 485 228 90 106 157 285 157 417 l0 46
28 -15 c41 -21 148 -38 196 -31 117 18 199 60 278 143 131 138 179 350 120
538 -20 64 -406 814 -426 826 -6 4 -13 8 -16 8 -3 0 -10 -4 -16 -8z m204 -468
c201 -388 220 -440 208 -560 -13 -127 -64 -233 -151 -312 -69 -64 -143 -93
-236 -93 -112 -1 -181 25 -255 93 -125 115 -179 315 -130 481 9 33 93 206 187
385 93 180 172 334 175 344 3 10 8 18 12 18 4 0 89 -160 190 -356z m-838 -167
c172 -307 175 -312 182 -386 15 -151 62 -257 161 -359 l52 -53 -1 -73 c-3
-156 -56 -286 -166 -402 -121 -128 -258 -181 -438 -171 -333 17 -578 312 -540
650 5 40 18 99 29 130 10 31 127 247 259 479 132 233 248 440 259 460 10 21
20 37 23 37 3 0 84 -140 180 -312z m221 -240 c-1 -4 -1 -17 -1 -29 0 -21 -1
-21 -16 -6 -18 17 -12 52 7 46 6 -2 10 -7 10 -11z"/>
<path d="M2200 1403 c-1 -37 -35 -111 -68 -147 -32 -34 -116 -76 -154 -76 -25
0 -28 -3 -28 -36 l0 -37 49 6 c63 7 136 45 183 94 41 42 83 127 91 186 l6 37
-40 0 c-36 0 -39 -2 -39 -27z"/>
<path d="M1066 1460 c-20 -23 -44 -58 -54 -78 -9 -20 -17 -38 -18 -40 0 -1
-16 4 -35 12 -51 21 -134 30 -158 16 -17 -8 -21 -20 -21 -59 0 -26 7 -70 15
-97 8 -27 15 -50 15 -51 0 -2 -17 -11 -39 -22 -46 -24 -98 -66 -111 -92 -13
-24 34 -79 99 -116 25 -15 47 -28 49 -29 2 -1 -4 -23 -12 -48 -21 -60 -21
-139 -1 -156 18 -15 112 -6 164 16 19 8 35 13 35 12 1 -2 9 -20 18 -40 24 -51
86 -118 110 -118 25 0 82 61 109 116 l20 43 33 -14 c50 -21 130 -29 155 -16
18 10 21 21 21 72 0 33 -7 76 -15 96 -8 20 -14 37 -13 38 2 2 22 12 44 23 51
26 114 84 114 104 0 21 -56 74 -110 106 -25 14 -46 26 -48 27 -1 1 5 18 13 38
20 48 20 150 0 167 -17 15 -112 6 -162 -15 -32 -14 -32 -13 -52 28 -25 52 -87
117 -111 117 -10 0 -34 -18 -54 -40z m115 -138 c18 -56 7 -144 -25 -192 -15
-23 -32 -40 -39 -37 -24 8 -67 108 -67 156 0 47 28 121 57 153 15 17 17 16 39
-14 13 -17 29 -47 35 -66z m-233 -38 c27 -11 32 -18 32 -46 0 -18 3 -43 6 -56
6 -21 5 -22 -20 -12 -15 5 -40 10 -55 10 -31 0 -47 24 -57 91 l-7 41 34 -7
c19 -4 49 -13 67 -21z m437 -40 c-21 -68 -23 -71 -83 -76 -49 -5 -52 -4 -46
14 3 11 6 35 6 54 0 30 4 35 42 48 53 19 79 24 89 16 4 -3 0 -28 -8 -56z
m-347 -109 c13 -28 5 -32 -23 -12 -10 8 -15 19 -11 25 11 18 22 14 34 -13z
m187 -11 c-23 -17 -34 -2 -14 22 9 11 15 12 23 4 8 -8 6 -15 -9 -26z m-215
-44 c53 -27 64 -43 42 -62 -78 -69 -216 -69 -294 0 -21 18 -11 35 36 59 70 36
149 37 216 3z m441 -7 c27 -14 49 -31 49 -38 0 -16 -86 -62 -132 -70 -45 -9
-132 16 -172 48 l-29 24 32 23 c78 55 167 60 252 13z m-311 -42 c0 -10 -8 -17
-20 -17 -19 0 -28 25 -14 39 11 10 34 -5 34 -22z m3 -69 c29 -31 47 -90 47
-149 0 -46 -6 -69 -31 -111 -29 -51 -31 -53 -49 -37 -10 9 -28 39 -40 68 -29
66 -24 136 14 201 30 51 36 54 59 28z m-103 -14 c0 -7 -5 -20 -10 -28 -8 -12
-11 -13 -22 -2 -11 11 -9 16 6 28 24 17 26 17 26 2z m198 -25 c-10 -13 -14
-12 -25 3 -20 27 -16 35 12 22 20 -9 23 -14 13 -25z m-255 -71 c-6 -58 -22
-73 -95 -86 -45 -8 -48 2 -22 77 14 42 19 47 47 48 18 0 41 4 52 8 11 5 21 8
21 7 1 0 -1 -25 -3 -54z m348 38 c33 0 46 -23 56 -92 6 -43 5 -44 -64 -23 -50
15 -51 16 -58 61 -3 26 -9 53 -12 60 -4 12 0 12 22 4 14 -5 40 -10 56 -10z"/>
<path d="M1550 922 c0 -51 -32 -143 -71 -203 -30 -47 -110 -116 -161 -140 -16
-7 -28 -16 -28 -20 0 -17 24 -59 33 -59 5 0 41 21 79 46 128 85 199 204 222
372 l6 42 -40 0 c-40 0 -40 0 -40 -38z"/>
<path d="M1153 533 c-30 -4 -33 -7 -33 -40 l0 -36 56 6 c31 3 58 7 60 9 2 2 0
17 -5 34 -8 31 -19 35 -78 27z"/>
</g>
</svg>
